<svg aria-hidden="true" style="position: absolute; width: 0; height: 0; overflow: hidden;" version="1.1" xmlns="http://www.w3.org/2000/svg" xmlns:xlink="http://www.w3.org/1999/xlink">
<defs>
<symbol id="icon-map" viewBox="0 0 20 20">
<path d="M0 0l6 4 8-4 6 4v16l-6-4-8 4-6-4v-16zM7 6v11l6-3v-11l-6 3z"></path>
</symbol>
<symbol id="icon-travel-bus" viewBox="0 0 20 20">
<path d="M13 18h-6v1c0 0.552-0.448 1-1 1v0h-1c-0.552 0-1-0.448-1-1v0-1c-1.105 0-2-0.895-2-2v0-14c0-1.1 0.9-2 2-2h12c1.105 0 2 0.895 2 2v0 14c0 1.105-0.895 2-2 2v0 1c0 0.552-0.448 1-1 1v0h-1c-0.552 0-1-0.448-1-1v0-1zM4 5v6h5v-6h-5zM11 5v6h5v-6h-5zM5 2v1h10v-1h-10zM5.5 16c0.828 0 1.5-0.672 1.5-1.5s-0.672-1.5-1.5-1.5v0c-0.828 0-1.5 0.672-1.5 1.5s0.672 1.5 1.5 1.5v0zM14.5 16c0.828 0 1.5-0.672 1.5-1.5s-0.672-1.5-1.5-1.5v0c-0.828 0-1.5 0.672-1.5 1.5s0.672 1.5 1.5 1.5v0z"></path>
</symbol>
<symbol id="icon-travel-train" viewBox="0 0 20 20">
<path d="M12 18h-4l-2 2h-3l2-2c-1.105 0-2-0.895-2-2v0-14c0-1.1 0.9-2 2-2h10c1.105 0 2 0.895 2 2v0 14c0 1.105-0.895 2-2 2v0l2 2h-3l-2-2zM5 5v6h10v-6h-10zM6.5 16c0.828 0 1.5-0.672 1.5-1.5s-0.672-1.5-1.5-1.5v0c-0.828 0-1.5 0.672-1.5 1.5s0.672 1.5 1.5 1.5v0zM13.5 16c0.828 0 1.5-0.672 1.5-1.5s-0.672-1.5-1.5-1.5v0c-0.828 0-1.5 0.672-1.5 1.5s0.672 1.5 1.5 1.5v0zM8 2v1h4v-1h-4z"></path>
</symbol>
<symbol id="icon-user" viewBox="0 0 20 20">
<path d="M5 5c0-2.761 2.239-5 5-5s5 2.239 5 5v0 2c0 2.761-2.239 5-5 5s-5-2.239-5-5v0-2zM0 16.68c2.86-1.685 6.301-2.68 9.974-2.68 0.009 0 0.018 0 0.027 0h-0.001c3.64 0 7.060 0.97 10 2.68v3.32h-20v-3.32z"></path>
</symbol>
</defs>
</svg>
